<?xml version="1.0" encoding="utf-8"?>
<!-- Generator: Adobe Illustrator 12.0.0, SVG Export Plug-In  -->
<!DOCTYPE svg PUBLIC "-//W3C//DTD SVG 1.1//EN" "http://www.w3.org/Graphics/SVG/1.1/DTD/svg11.dtd" [
	<!ENTITY ns_flows "http://ns.adobe.com/Flows/1.0/">
	<!ENTITY ns_svg "http://www.w3.org/2000/svg">
	<!ENTITY ns_xlink "http://www.w3.org/1999/xlink">
]>
<svg  version="1.1" xmlns="&ns_svg;" xmlns:xlink="&ns_xlink;" xmlns:a="http://ns.adobe.com/AdobeSVGViewerExtensions/3.0/"
	 width="171" height="202" viewBox="-0.88 -0.509 171 202" enable-background="new -0.88 -0.509 171 202" xml:space="preserve">
<defs>
</defs>
<path fill="#2D2233" d="M168.745,71.559c-0.013,0.156-0.016,0.336-0.031,0.444L168.745,71.559L168.745,71.559z"/>
<path fill="#2D2233" d="M168.225,61.057l0.037-0.471l0,0C168.252,60.754,168.243,60.95,168.225,61.057z"/>
<path fill="#2D2233" d="M168.157,59.494l0.037-0.471V59.02C168.182,59.188,168.176,59.387,168.157,59.494z"/>
<path fill="#2D2233" d="M168.228,59.809c-0.009,0.159-0.015,0.336-0.033,0.45L168.228,59.809L168.228,59.809z"/>
<path fill="#2D2233" d="M168.365,64.189l0.037-0.471l0,0C168.39,63.886,168.378,64.082,168.365,64.189z"/>
<path fill="#2D2233" d="M168.365,62.941c-0.006,0.159-0.015,0.339-0.03,0.453L168.365,62.941L168.365,62.941z"/>
<path fill="#2D2233" d="M168.678,71.237l0.03-0.471l0,0C168.702,70.935,168.689,71.13,168.678,71.237z"/>
<path fill="#2D2233" d="M168.678,69.989c-0.013,0.156-0.019,0.34-0.031,0.45L168.678,69.989L168.678,69.989z"/>
<path fill="#2D2233" d="M168.464,66.539l0.036-0.468v-0.006C168.494,66.236,168.481,66.429,168.464,66.539z"/>
<path fill="#2D2233" d="M168.537,68.108l0.039-0.474l0,0C168.562,67.802,168.552,68.001,168.537,68.108z"/>
<path fill="#2D2233" d="M168.604,69.674l0.036-0.471v-0.006C168.629,69.368,168.622,69.564,168.604,69.674z"/>
<path fill="#2D2233" d="M168.157,58.239c-0.012,0.156-0.012,0.343-0.03,0.453L168.157,58.239L168.157,58.239z"/>
<path fill="#2D2233" d="M167.711,48.065c-0.013,0.156-0.019,0.336-0.03,0.446L167.711,48.065L167.711,48.065z"/>
<path fill="#2D2233" d="M167.708,49.307l0.04-0.465v-0.006C167.735,49.004,167.723,49.2,167.708,49.307z"/>
<path fill="#2D2233" d="M167.812,51.659l0.037-0.471l0,0C167.833,51.354,167.83,51.549,167.812,51.659z"/>
<path fill="#2D2233" d="M167.638,47.744l0.036-0.468V47.27C167.662,47.44,167.656,47.63,167.638,47.744z"/>
<path fill="#2D2233" d="M167.882,51.978c-0.009,0.159-0.018,0.339-0.033,0.45L167.882,51.978L167.882,51.978z"/>
<path fill="#2D2233" d="M168.087,56.673c-0.009,0.162-0.015,0.34-0.033,0.453L168.087,56.673L168.087,56.673z"/>
<path fill="#2D2233" d="M167.876,53.226l0.043-0.471l0,0C167.906,52.923,167.895,53.118,167.876,53.226z"/>
<path fill="#2D2233" d="M168.017,56.361l0.037-0.474l0,0C168.044,56.055,168.035,56.251,168.017,56.361z"/>
<path fill="#2D2233" d="M168.087,57.927l0.034-0.471V57.45C168.114,57.622,168.103,57.817,168.087,57.927z"/>
<path fill="#2D2233" d="M168.022,55.113c-0.012,0.153-0.018,0.34-0.036,0.45L168.022,55.113L168.022,55.113z"/>
<path fill="#2D2233" d="M167.949,54.795l0.037-0.471v-0.006C167.974,54.486,167.968,54.682,167.949,54.795z"/>
<path fill="#2D2233" d="M168.298,62.62l0.037-0.468l0,0C168.322,62.317,168.313,62.513,168.298,62.62z"/>
<path fill="#2D2233" d="M169.467,89.249l0.043-0.471l0,0C169.491,88.946,169.485,89.146,169.467,89.249z"/>
<path fill="#2D2233" d="M169.399,86.435c-0.006,0.16-0.016,0.337-0.03,0.45L169.399,86.435L169.399,86.435z"/>
<path fill="#2D2233" d="M169.399,87.687l0.037-0.471v-0.007C169.424,87.384,169.412,87.576,169.399,87.687z"/>
<path fill="#2D2233" d="M169.332,86.117l0.037-0.472l0,0C169.351,85.813,169.348,86.01,169.332,86.117z"/>
<path fill="#2D2233" d="M169.332,84.869c-0.012,0.156-0.016,0.337-0.033,0.449L169.332,84.869L169.332,84.869z"/>
<path fill="#2D2233" d="M169.265,84.554l0.034-0.474l0,0C169.289,84.251,169.277,84.44,169.265,84.554z"/>
<path fill="#2D2233" d="M169.537,90.815l0.037-0.468v-0.006C169.564,90.51,169.553,90.709,169.537,90.815z"/>
<path fill="#2D2233" d="M169.647,93.149l0.03-0.446V92.7C169.666,92.856,169.662,93.036,169.647,93.149z"/>
<path fill="#2D2233" d="M169.607,91.134c-0.012,0.156-0.019,0.34-0.03,0.453L169.607,91.134L169.607,91.134z"/>
<path fill="#2D2233" d="M169.607,92.382l0.037-0.468v-0.009C169.632,92.079,169.623,92.274,169.607,92.382z"/>
<path fill="#2D2233" d="M169.124,81.418l0.037-0.468v-0.003C169.148,81.115,169.143,81.308,169.124,81.418z"/>
<path fill="#2D2233" d="M168.886,74.691c-0.013,0.153-0.019,0.336-0.037,0.45L168.886,74.691L168.886,74.691z"/>
<path fill="#2D2233" d="M168.886,75.933l0.033-0.468v-0.003C168.907,75.63,168.9,75.826,168.886,75.933z"/>
<path fill="#2D2233" d="M168.95,77.502l0.039-0.468v-0.006C168.975,77.2,168.965,77.393,168.95,77.502z"/>
<path fill="#2D2233" d="M168.813,74.373l0.036-0.471l0,0C168.84,74.07,168.827,74.263,168.813,74.373z"/>
<path fill="#2D2233" d="M168.815,73.122c-0.01,0.159-0.019,0.339-0.034,0.45L168.815,73.122L168.815,73.122z"/>
<path fill="#2D2233" d="M169.191,82.984l0.037-0.471V82.51C169.216,82.679,169.21,82.875,169.191,82.984z"/>
<path fill="#2D2233" d="M169.057,78.601c-0.012,0.162-0.019,0.34-0.036,0.453L169.057,78.601L169.057,78.601z"/>
<path fill="#2D2233" d="M169.194,81.736c-0.009,0.159-0.019,0.343-0.033,0.453L169.194,81.736L169.194,81.736z"/>
<path fill="#2D2233" d="M168.745,72.807l0.036-0.474l0,0C168.77,72.501,168.764,72.697,168.745,72.807z"/>
<path fill="#2D2233" d="M169.021,77.821c-0.013,0.159-0.016,0.339-0.031,0.45L169.021,77.821L169.021,77.821z"/>
<path fill="#2D2233" d="M169.057,79.855l0.034-0.474l0,0C169.081,79.549,169.069,79.742,169.057,79.855z"/>
<path fill="#2D2233" d="M169.696,92.483c0-0.04,0.006-0.053,0.006-0.092v-0.324c-0.012-0.139-0.027-0.267-0.043-0.377
	c0.003-0.033,0.007-0.052,0.007-0.088v-0.318c-0.01-0.132-0.028-0.26-0.04-0.367c0.006-0.037,0.006-0.055,0.006-0.098v-0.318
	c-0.009-0.141-0.024-0.267-0.043-0.379c0-0.034,0.007-0.05,0.007-0.084v-0.324c-0.007-0.128-0.025-0.254-0.037-0.36
	c0-0.04,0.006-0.058,0.006-0.101v-0.324c-0.012-0.132-0.027-0.264-0.043-0.371c0.004-0.033,0.007-0.049,0.007-0.085v-0.324
	c-0.013-0.122-0.024-0.239-0.037-0.346c0-0.04,0.006-0.073,0.006-0.113v-0.324c-0.012-0.138-0.03-0.263-0.039-0.376
	c0-0.034,0.003-0.049,0.003-0.083v-0.321c-0.013-0.131-0.031-0.257-0.043-0.37c0.006-0.036,0.006-0.056,0.006-0.092v-0.321
	c-0.012-0.138-0.024-0.266-0.04-0.379c0-0.033,0.01-0.049,0.01-0.083v-0.321c-0.019-0.131-0.03-0.26-0.043-0.367
	c0-0.037,0.006-0.055,0.006-0.098v-0.324c-0.012-0.131-0.024-0.257-0.043-0.37c0.003-0.037,0.007-0.052,0.007-0.085v-0.325
	c-0.01-0.122-0.021-0.241-0.037-0.345c0-0.043,0.006-0.071,0.006-0.113v-0.328c-0.012-0.131-0.03-0.257-0.043-0.37
	c0-0.034,0.007-0.049,0.007-0.085v-0.324c-0.007-0.128-0.024-0.254-0.043-0.364c0-0.04,0.006-0.058,0.006-0.092V81.1
	c-0.006-0.135-0.024-0.26-0.04-0.373c0-0.034,0.01-0.046,0.01-0.086v-0.324c-0.013-0.123-0.027-0.242-0.043-0.349
	c0-0.04,0.006-0.067,0.006-0.11v-0.327c-0.012-0.131-0.027-0.26-0.043-0.37c0.007-0.034,0.007-0.049,0.007-0.089V78.75
	c-0.007-0.131-0.024-0.257-0.04-0.364c0.003-0.04,0.009-0.055,0.009-0.095v-0.324c-0.012-0.132-0.024-0.254-0.043-0.364
	c0.007-0.04,0.007-0.055,0.007-0.095v-0.328c-0.013-0.134-0.024-0.26-0.04-0.37c0-0.037,0.003-0.049,0.003-0.088v-0.324
	c-0.006-0.123-0.024-0.239-0.036-0.346c0.003-0.04,0.006-0.067,0.006-0.11v-0.327c-0.013-0.132-0.027-0.26-0.046-0.37
	c0.006-0.037,0.012-0.052,0.012-0.086v-0.327c-0.012-0.128-0.024-0.254-0.043-0.364c0.004-0.037,0.01-0.055,0.01-0.092v-0.327
	c-0.013-0.131-0.03-0.257-0.043-0.37c0-0.031,0.006-0.049,0.006-0.086v-0.324c-0.012-0.131-0.03-0.254-0.043-0.364
	c0-0.037,0.01-0.055,0.01-0.098v-0.324c-0.013-0.131-0.027-0.257-0.043-0.37c0-0.034,0.009-0.049,0.009-0.085v-0.328
	c-0.015-0.128-0.027-0.254-0.042-0.361c0-0.04,0.006-0.058,0.006-0.095v-0.327c-0.013-0.132-0.024-0.26-0.043-0.371
	c0.003-0.033,0.006-0.049,0.006-0.083v-0.327c-0.009-0.128-0.024-0.254-0.04-0.364c0.004-0.037,0.01-0.058,0.01-0.098V69.35
	c-0.013-0.135-0.03-0.26-0.043-0.37c0-0.037,0.006-0.049,0.006-0.086V68.57c-0.009-0.125-0.024-0.242-0.043-0.349
	c0.007-0.04,0.007-0.067,0.007-0.113v-0.327c-0.013-0.131-0.024-0.254-0.043-0.367c0.003-0.034,0.012-0.049,0.012-0.089V67
	c-0.012-0.125-0.027-0.238-0.039-0.342c0-0.043,0.006-0.07,0.006-0.113v-0.324c-0.013-0.132-0.03-0.263-0.046-0.374
	c0.006-0.037,0.006-0.049,0.006-0.085v-0.324c-0.006-0.123-0.024-0.242-0.036-0.349c0-0.04,0.006-0.067,0.006-0.113v-0.321
	c-0.013-0.123-0.03-0.242-0.04-0.349c0-0.043,0.003-0.07,0.003-0.11v-0.33c-0.009-0.129-0.027-0.254-0.039-0.367
	c0-0.034,0.009-0.052,0.009-0.086v-0.324c-0.016-0.131-0.03-0.254-0.043-0.367c0-0.037,0.006-0.055,0.006-0.092v-0.33
	c-0.012-0.132-0.024-0.254-0.042-0.367c0.003-0.037,0.012-0.049,0.012-0.085v-0.328c-0.019-0.122-0.03-0.238-0.043-0.346
	c0-0.04,0.006-0.07,0.006-0.107v-0.333c-0.012-0.131-0.03-0.257-0.042-0.367c0-0.034,0.006-0.052,0.006-0.085v-0.324
	c-0.01-0.132-0.024-0.254-0.043-0.367c0-0.037,0.009-0.055,0.009-0.095v-0.324c-0.015-0.132-0.027-0.257-0.039-0.37
	c0-0.034,0.006-0.049,0.006-0.086v-0.327c-0.016-0.128-0.027-0.251-0.043-0.361c0-0.04,0.009-0.052,0.009-0.095V57.6
	c-0.012-0.128-0.027-0.257-0.039-0.367c0-0.037,0-0.049,0-0.085v-0.325c-0.007-0.131-0.024-0.254-0.043-0.364
	c0.006-0.04,0.012-0.058,0.012-0.095v-0.331c-0.018-0.128-0.03-0.257-0.042-0.364c0-0.037,0.006-0.052,0.006-0.092V55.25
	c-0.01-0.125-0.027-0.248-0.04-0.355c0-0.04,0.006-0.055,0.006-0.098v-0.327c-0.009-0.132-0.027-0.257-0.046-0.37
	c0.007-0.037,0.013-0.046,0.013-0.086v-0.327c-0.013-0.12-0.024-0.236-0.04-0.346c0-0.04,0.01-0.07,0.01-0.11v-0.33
	c-0.019-0.132-0.034-0.254-0.046-0.37c0-0.034,0.003-0.046,0.003-0.083v-0.33c-0.007-0.125-0.024-0.248-0.037-0.358
	c0-0.037,0.006-0.052,0.006-0.095v-0.331c-0.012-0.131-0.03-0.254-0.042-0.367c0-0.037,0.009-0.052,0.009-0.085v-0.331
	c-0.016-0.122-0.027-0.232-0.04-0.339c0-0.043,0.007-0.07,0.007-0.113v-0.331c-0.016-0.122-0.028-0.232-0.043-0.339
	c0.003-0.043,0.009-0.07,0.009-0.113v-0.331c-0.016-0.131-0.027-0.25-0.046-0.367c0.006-0.034,0.006-0.049,0.006-0.083v-0.333
	c-0.012-0.122-0.024-0.248-0.039-0.354c0.003-0.04,0.009-0.058,0.009-0.098v-0.33c-0.013-0.128-0.03-0.257-0.043-0.367
	c0-0.037,0.006-0.049,0.006-0.086v-0.33c-0.009-0.12-0.024-0.232-0.039-0.34c0.003-0.042,0.006-0.07,0.006-0.116
	c0-0.315-0.019-0.593-0.027-0.792l-0.007,0.034v-0.019c0-0.312-0.018-0.575-0.03-0.768l-0.006,0.043c0-0.021,0-0.064,0-0.064
	c0-0.318-0.019-0.594-0.03-0.792l-0.007,0.034v-0.021c0-0.321-0.015-0.593-0.027-0.792l-0.003,0.016v-0.006
	c0-0.321-0.019-0.593-0.03-0.795l-0.007,0.034v-0.021c0-0.309-0.018-0.575-0.027-0.768l-0.006,0.046c0-0.021,0-0.062,0-0.062
	c0-0.324-0.019-0.596-0.034-0.798v0.034v-0.018c0-0.321-0.018-0.594-0.03-0.792v0.019v-0.009c0-0.321-0.024-0.594-0.036-0.795
	l-0.007,0.037c0-0.006,0-0.024,0-0.024c0-0.309-0.012-0.575-0.027-0.768l-0.003,0.046c0-0.018,0-0.061,0-0.061
	c0-0.318-0.016-0.59-0.03-0.792l-0.004,0.031c0-0.003,0-0.024,0-0.024c0-0.315-0.021-0.59-0.033-0.792v0.019v-0.006
	c0-0.309-0.019-0.572-0.03-0.765l-0.007,0.046c0-0.024,0-0.064,0-0.064c0-0.321-0.018-0.593-0.03-0.792l-0.003,0.037
	c0-0.006,0-0.031,0-0.031c0-0.318-0.019-0.587-0.033-0.789v0.015v-0.006c0-0.315-0.019-0.578-0.034-0.774l-0.003,0.049
	c0-0.012,0-0.061,0-0.061c0-0.3-0.016-0.56-0.027-0.75l-0.006,0.067c0-0.045,0-0.098,0-0.098c0-0.315-0.016-0.578-0.028-0.777
	l-0.006,0.04c0-0.012,0-0.046,0-0.046c0-0.315-0.019-0.578-0.037-0.774v0.019c0-0.003,0-0.028,0-0.028
	c0-0.315-0.018-0.578-0.027-0.774l-0.009,0.049c0-0.016,0-0.059,0-0.059c0-0.306-0.016-0.563-0.024-0.749l-0.006,0.064
	c0-0.046,0-0.098,0-0.098c0-0.312-0.019-0.582-0.031-0.774l-0.003,0.033c0-0.009,0-0.042,0-0.042c0-0.312-0.021-0.582-0.033-0.774
	v0.018c0-0.003,0-0.027,0-0.027c0-0.312-0.019-0.581-0.031-0.774l-0.006,0.046c0-0.012,0-0.055,0-0.055
	c0-0.303-0.019-0.56-0.03-0.747V26.7c0-0.04,0-0.095,0-0.095c0-0.312-0.021-0.578-0.037-0.777v0.052c0-0.015,0-0.061,0-0.061
	c0-0.309-0.024-0.572-0.03-0.768l-0.006,0.015c0-0.006,0-0.027,0-0.027c0-0.313-0.016-0.582-0.031-0.774l-0.003,0.052
	c0-0.019,0-0.064,0-0.064c0-0.303-0.016-0.56-0.033-0.746v0.061c0-0.043,0-0.098,0-0.098c0-0.313-0.019-0.575-0.031-0.771
	l-0.006,0.049c0-0.015,0-0.061,0-0.061c0-0.312-0.019-0.575-0.03-0.768l-0.007,0.019c0-0.009,0-0.031,0-0.031
	C166.591,9.214,156.655,0,142.957,0c-23.959,0-49.687,16.033-50.262,51.124L92.5,51.179v-0.89l-0.472,0.135v-0.899l-0.478,0.135
	v-0.894l-0.477,0.138V48L90.6,48.138v-0.896l-0.474,0.132v-0.89l-0.478,0.134v-0.899l-0.478,0.135V44.96l-0.474,0.134v-0.896
	l-0.475,0.134v-0.89l-0.479,0.135v-0.902l-0.478,0.138v-0.896l-0.474,0.135V41.16l-0.476,0.135v-0.899l-0.476,0.132V39.64
	l-0.475,0.131v-0.902l-0.474,0.135v-0.891l-0.48,0.138v-0.902l-0.475,0.141V36.59l-0.475,0.135v-0.893l-0.477,0.134v-0.899
	l-0.475,0.135v-0.89l-0.475,0.135v-0.899l-0.479,0.134v-0.89l-0.475,0.135v-0.899l-0.475,0.135v-0.899l-0.477,0.138v-0.891
	l-0.479,0.132v-0.899l-0.474,0.138v-0.89l-0.474,0.131v-0.896l-0.476,0.132v-0.89l-0.478,0.131v-0.899l-0.474,0.138v-0.893
	l-0.474,0.131v-0.89l-0.477,0.131v-0.896l-0.477,0.134v-0.893l-0.475,0.138v-0.902L74.9,23.032v-0.894l-0.48,0.135v-0.899
	l-0.474,0.135v-0.896l-5.75,1.637l-52.64,14.962l-3.284,0.936v3.414v7.59v4.001l0.725,0.089v0.566l0.727,0.086v0.569l0.727,0.088
	v0.563l0.722,0.089v0.566l0.728,0.085v0.566l0.73,0.092v0.563l0.726,0.086v0.569l0.724,0.085v0.566l0.727,0.089v0.563l0.729,0.088
	v0.569l0.728,0.083v0.569l0.722,0.089v0.566l0.727,0.089v0.563l0.728,0.086v0.566l0.728,0.092v0.566l0.724,0.085v0.566l0.728,0.086
	v0.566l0.727,0.089v0.565l0.724,0.092v0.563l0.728,0.086v0.566l0.728,0.088v0.563l0.727,0.089v0.56l1.101,0.135
	c0.167,1.523,0.274,3.206,0.316,5.115c0-0.098,0,63.596,0,63.596l-0.003,1.927c-0.009,10.38-0.006,13.94,2.96,21.913
	c-0.058-0.01-0.141-0.025-0.193-0.031c-0.216-0.04-0.467-0.073-0.647-0.101c-0.285-0.056-0.537-0.089-0.721-0.119
	c-0.273-0.046-0.52-0.08-0.697-0.107c-0.232-0.043-0.497-0.076-0.69-0.107c-0.219-0.042-0.466-0.076-0.644-0.104
	c-0.296-0.056-0.543-0.089-0.726-0.113c-0.274-0.052-0.517-0.083-0.695-0.107c-0.235-0.049-0.499-0.082-0.693-0.113
	c-0.22-0.042-0.491-0.082-0.687-0.106c-0.271-0.049-0.516-0.083-0.691-0.107c-1.695-0.357-3.59-0.548-5.584-0.548
	C8.954,158.541,0,167.6,0,178.729c0,12.692,9.939,21.906,23.636,21.906c1.563,0,3.156-0.073,4.867-0.227
	c0.315-0.021,0.491-0.027,0.687-0.049c0.278-0.019,0.428-0.024,0.595-0.033c0.354-0.024,0.529-0.034,0.731-0.056
	c0.321-0.019,0.499-0.027,0.693-0.046c0.307-0.021,0.476-0.03,0.674-0.046c0.285-0.019,0.466-0.027,0.674-0.043
	c0.303-0.024,0.475-0.033,0.672-0.049c0.278-0.018,0.433-0.027,0.598-0.036c0.338-0.021,0.551-0.04,0.787-0.059
	c0.197-0.009,0.408-0.021,0.635-0.04c0.306-0.021,0.479-0.03,0.674-0.049c0.306-0.021,0.48-0.027,0.676-0.049
	c0.229-0.006,0.43-0.021,0.659-0.043c0.291-0.012,0.465-0.024,0.664-0.043c0.32-0.021,0.502-0.03,0.694-0.045
	c0.318-0.021,0.462-0.034,0.617-0.043c0.358-0.021,0.537-0.031,0.734-0.049c0.275-0.019,0.425-0.025,0.598-0.04
	c0.335-0.019,0.548-0.034,0.785-0.056c0.208-0.006,0.407-0.021,0.633-0.039c0.305-0.021,0.48-0.027,0.675-0.049
	c0.307-0.021,0.481-0.031,0.676-0.046c0.242-0.013,0.442-0.024,0.67-0.043c0.28-0.019,0.456-0.031,0.658-0.049
	c0.272-0.013,0.488-0.024,0.731-0.053c0.266-0.012,0.438-0.021,0.635-0.036c0.238-0.016,0.443-0.024,0.674-0.046
	c0.301-0.021,0.476-0.027,0.671-0.049c0.252-0.013,0.419-0.021,0.601-0.037c0.349-0.019,0.529-0.033,0.725-0.049
	c0.326-0.021,0.499-0.03,0.691-0.049c0.309-0.021,0.483-0.027,0.676-0.046c0.25-0.013,0.431-0.027,0.618-0.043
	c0.333-0.021,0.516-0.027,0.717-0.046c0.204-0.013,0.427-0.024,0.666-0.049c0.24-0.009,0.459-0.024,0.696-0.046
	c0.237-0.013,0.444-0.021,0.676-0.046c0.301-0.019,0.474-0.027,0.668-0.046c0.307-0.021,0.474-0.027,0.671-0.046
	c0.232-0.013,0.436-0.021,0.662-0.043c0.292-0.016,0.473-0.027,0.667-0.046c0.32-0.021,0.499-0.027,0.693-0.046
	c0.243-0.012,0.445-0.024,0.675-0.043c0.301-0.024,0.479-0.03,0.674-0.049c0.25-0.016,0.416-0.024,0.598-0.04
	c0.338-0.018,0.549-0.036,0.783-0.058c0.211-0.006,0.408-0.019,0.638-0.037c0.303-0.024,0.479-0.03,0.671-0.049
	c0.228-0.012,0.44-0.024,0.676-0.046c0.232-0.012,0.433-0.024,0.659-0.043c0.292-0.018,0.468-0.027,0.67-0.043
	c0.324-0.024,0.493-0.033,0.691-0.049c0.245-0.015,0.425-0.027,0.615-0.039c0.362-0.024,0.535-0.034,0.729-0.053
	c0.301-0.021,0.479-0.03,0.671-0.049c0.234-0.009,0.436-0.021,0.666-0.043c0.289-0.015,0.47-0.024,0.668-0.046
	c0.315-0.018,0.496-0.024,0.691-0.042c0.306-0.025,0.476-0.034,0.673-0.05c0.242-0.012,0.444-0.024,0.673-0.046
	c0.278-0.015,0.46-0.024,0.664-0.046c0.209-0.009,0.451-0.021,0.722-0.049c0.206-0.006,0.404-0.018,0.633-0.036
	c0.308-0.024,0.482-0.031,0.676-0.053c0.304-0.018,0.474-0.024,0.674-0.042c0.227-0.016,0.43-0.024,0.658-0.046
	c0.294-0.016,0.468-0.028,0.67-0.043c0.316-0.021,0.497-0.031,0.689-0.049c0.222-0.016,0.44-0.027,0.676-0.046
	c0.242-0.013,0.442-0.024,0.671-0.043c0.306-0.021,0.48-0.034,0.673-0.052c0.25-0.013,0.416-0.019,0.6-0.034
	c0.352-0.024,0.531-0.033,0.727-0.052c0.324-0.021,0.499-0.03,0.694-0.046c0.306-0.021,0.483-0.03,0.676-0.046
	c0.229-0.013,0.465-0.03,0.731-0.055c0.171-0.007,0.37-0.016,0.597-0.037c0.213-0.009,0.432-0.024,0.675-0.046
	c0.316-0.021,0.499-0.03,0.69-0.049c0.239-0.01,0.443-0.021,0.672-0.043c0.308-0.019,0.475-0.024,0.675-0.046
	c0.251-0.016,0.415-0.024,0.599-0.037c0.342-0.021,0.551-0.036,0.787-0.061c0.203-0.003,0.406-0.019,0.633-0.04
	c0.227-0.013,0.439-0.024,0.675-0.043c0.229-0.019,0.442-0.027,0.672-0.049c0.244-0.013,0.446-0.021,0.676-0.043
	c0.252-0.015,0.418-0.024,0.603-0.04c0.334-0.021,0.542-0.036,0.777-0.058c0.205-0.006,0.413-0.019,0.64-0.04
	c9.746-0.676,17.975-5.521,22.961-13.182c0.043-0.009,0.086-0.016,0.141-0.027v0.101c0,0.024,0.147,0,0.35-0.043v0.11
	c0,0.021,0.141,0.006,0.342-0.036v0.089c0,0.024,0.141,0,0.343-0.043v0.101c0,0.021,0.141,0,0.343-0.04v0.107
	c0,0.021,0.141,0.003,0.343-0.04v0.092c0,0.024,0.141,0,0.346-0.043v0.107c0,0.024,0.138,0.006,0.343-0.037v0.089
	c0,0.024,0.141,0,0.346-0.043v0.102c0,0.024,0.138,0,0.342-0.043v0.11c0,0.021,0.135,0.003,0.343-0.037v0.086
	c0,0.027,0.141,0,0.346-0.043v0.104c0,0.021,0.141,0,0.34-0.039v0.106c0,0.019,0.141,0,0.346-0.039v0.085
	c0,0.021,0.144,0.007,0.346-0.036v0.098c0,0.019,0.141,0,0.343-0.04v0.107c0,0.021,0.138,0,0.343-0.043v0.092
	c0,0.021,0.141,0.003,0.349-0.04v0.102c0,0.018,0.135,0,0.34-0.04v0.104c0,0.021,0.141,0,0.342-0.039v0.089
	c0,0.021,0.141,0.006,0.346-0.034v0.098c0,0.019,0.141,0,0.343-0.042v0.106c0,0.021,0.141,0,0.343-0.04v0.092
	c0,0.019,0.141,0.004,0.349-0.039v0.095c0,0.024,0.135,0.006,0.343-0.037v0.107c0,0.021,0.141,0,0.343-0.046v0.095
	c0,0.021,0.141,0.006,0.343-0.037v0.104c0,0.021,0.141,0,0.342-0.037v0.089c0,0.019,0.142,0,0.343-0.043v0.095
	c0,0.024,0.141,0,0.346-0.039v0.109c0,0.019,0.138,0.004,0.343-0.039v0.089c0,0.024,0.144,0,0.34-0.04v0.101
	c0,0.021,0.146,0,0.349-0.043v0.107c0,0.021,0.141,0.006,0.343-0.037v0.089c0,0.024,0.141,0,0.343-0.043v0.113
	c0,0.159,5.754-1.478,5.754-1.478l29.835-8.477l3.286-0.937v-3.41v-4.305v-4.139l-0.095-0.013v-0.006
	c0-0.009-0.059-0.024-0.092-0.036v-0.279l-0.092-0.009v-0.024c0-0.009-0.064-0.024-0.095-0.033v-0.264l-0.092-0.012v-0.01
	c0-0.006-0.062-0.021-0.099-0.036v-0.278l-0.085-0.01v-0.006c0-0.009-0.064-0.021-0.095-0.034v-0.281l-0.096-0.009v-0.024
	c0-0.006-0.055-0.021-0.091-0.034v-0.263l-0.096-0.006v-0.013c0-0.012-0.058-0.021-0.092-0.03v-0.284l-0.088-0.007v-0.012
	c0-0.01-0.062-0.019-0.099-0.031v-0.284l-0.092-0.006v-0.024c0-0.01-0.061-0.019-0.095-0.034v-0.263l-0.106-0.009
	c-0.007-0.01-0.053-0.019-0.074-0.031v-0.281l-0.098-0.009v-0.004c0-0.015-0.058-0.024-0.092-0.036v-0.281l-0.092-0.01v-0.006
	c0-0.009-0.061-0.024-0.092-0.033v-0.285l-0.092-0.012l0,0c0-0.016-0.061-0.027-0.095-0.037v-0.284l-0.095-0.01v-0.006
	c0-0.006-0.058-0.019-0.092-0.03v-0.285l-0.092-0.006v-0.006c0-0.009-0.058-0.021-0.092-0.037v-0.281l-0.098-0.006v-0.01
	c0-0.009-0.059-0.021-0.089-0.033v-0.281l-0.095-0.013v-0.006c0-0.006-0.062-0.021-0.092-0.03v-0.285l-0.092-0.012v-0.003
	c0-0.013-0.062-0.021-0.095-0.034v-0.284l-0.092-0.009v-0.007c0-0.009-0.062-0.021-0.092-0.03v-0.287l-0.095-0.007v-0.006
	c0-0.016-0.064-0.024-0.092-0.037v-0.284l-0.092-0.006v-0.006c0-0.007-0.062-0.025-0.095-0.037v-0.281l-0.095-0.007v-0.009
	c0-0.012-0.059-0.024-0.092-0.033v-0.278l-0.092-0.01v-0.009c0-0.01-0.062-0.024-0.095-0.034v-0.284l-0.092-0.006v-0.007
	c0-0.009-0.062-0.024-0.095-0.036v-0.281l-0.092-0.01v-0.006c0-0.009-0.062-0.024-0.092-0.033v-0.285l-0.099-0.009v-0.003
	c0-0.01-0.055-0.024-0.089-0.034v-0.287l-0.091-0.01v-0.006c0-0.009-0.059-0.019-0.096-0.03v-0.285l-0.092-0.009v-0.006
	c0-0.01-0.061-0.024-0.095-0.034V153.5l-0.092-0.006v-0.007c0-0.012-0.058-0.024-0.088-0.036v-0.284l-0.099-0.007v-0.006
	c0-0.009-0.055-0.024-0.092-0.037v-0.278l-0.095-0.012v-0.003c0-0.01-0.058-0.024-0.089-0.034v-0.284l-0.092-0.009v-0.007
	c0-0.009-0.061-0.024-0.095-0.033v-0.284l-0.095-0.007v-0.006c0-0.013-0.062-0.024-0.092-0.037v-0.284l-0.095-0.006v-0.006
	c0-0.013-0.055-0.025-0.089-0.037v-0.281l-0.098-0.007v-0.009c0-0.009-0.055-0.024-0.086-0.033v-0.282l-0.098-0.009v-0.009
	c0-0.013-0.062-0.021-0.092-0.034v-0.281l-0.092-0.009v-0.01c0-0.006-0.062-0.021-0.098-0.03v-0.281l-0.089-0.013v-0.006
	c0-0.01-0.062-0.024-0.095-0.034v-0.281l-0.092-0.009v-0.006c0-0.01-0.062-0.024-0.092-0.037v-0.278l-0.095-0.013v-0.003
	c0-0.006-0.059-0.021-0.089-0.033v-0.285l-0.098-0.009v-0.006c0-0.01-0.059-0.021-0.092-0.034v-0.284l-0.092-0.006v-0.007
	c0-0.012-0.062-0.024-0.098-0.036v-0.284l-0.089-0.007v-0.003c0-0.016-0.062-0.024-0.095-0.04v-0.281l-0.092-0.009v-0.003
	c0-0.013-0.062-0.024-0.092-0.037v-0.281l-0.099-0.009v-0.007c0-0.012-0.055-0.024-0.085-0.033v-0.284l-0.099-0.013l0,0
	c0-0.013-0.058-0.024-0.092-0.037v-0.284l-0.795-0.073c-0.205-0.034-0.446-0.07-0.7-0.113v-30.153v-0.961
	c0.003-4.53,0.003-7.088-0.826-10.227c1.272,0.343,2.701,0.572,4.371,0.572c7.309,0,13.259-6.009,13.259-13.398v-0.316
	C169.724,92.719,169.712,92.593,169.696,92.483z M167.638,47.744c0.019-0.113,0.024-0.303,0.036-0.474v0.006L167.638,47.744z
	 M167.711,48.065L167.711,48.065l-0.03,0.446C167.692,48.401,167.698,48.221,167.711,48.065z M167.708,49.307
	c0.015-0.107,0.027-0.303,0.04-0.471v0.006L167.708,49.307z M167.812,51.659c0.019-0.11,0.021-0.306,0.037-0.471l0,0L167.812,51.659
	z M167.882,51.978L167.882,51.978l-0.033,0.45C167.864,52.317,167.873,52.136,167.882,51.978z M167.876,53.226
	c0.019-0.107,0.03-0.303,0.043-0.471l0,0L167.876,53.226z M167.949,54.795c0.019-0.113,0.024-0.309,0.037-0.478v0.006
	L167.949,54.795z M168.022,55.113L168.022,55.113l-0.036,0.45C168.005,55.453,168.011,55.266,168.022,55.113z M168.017,56.361
	c0.019-0.11,0.027-0.306,0.037-0.474l0,0L168.017,56.361z M168.087,56.673L168.087,56.673l-0.033,0.453
	C168.072,57.013,168.078,56.835,168.087,56.673z M168.087,57.927c0.016-0.11,0.027-0.306,0.034-0.477v0.006L168.087,57.927z
	 M168.157,58.239L168.157,58.239l-0.03,0.453C168.146,58.582,168.146,58.396,168.157,58.239z M168.157,59.494
	c0.019-0.107,0.024-0.306,0.037-0.474v0.003L168.157,59.494z M168.228,59.809L168.228,59.809l-0.033,0.45
	C168.213,60.145,168.219,59.968,168.228,59.809z M168.225,61.057c0.019-0.107,0.027-0.303,0.037-0.471l0,0L168.225,61.057z
	 M168.298,62.62c0.016-0.107,0.024-0.303,0.037-0.468l0,0L168.298,62.62z M168.365,62.941L168.365,62.941l-0.03,0.453
	C168.351,63.281,168.359,63.1,168.365,62.941z M168.365,64.189c0.013-0.107,0.024-0.303,0.037-0.471l0,0L168.365,64.189z
	 M168.464,66.539c0.018-0.11,0.03-0.303,0.036-0.474v0.006L168.464,66.539z M168.537,68.108c0.015-0.107,0.024-0.306,0.039-0.474
	l0,0L168.537,68.108z M168.604,69.674c0.018-0.11,0.024-0.306,0.036-0.477v0.006L168.604,69.674z M168.678,69.989L168.678,69.989
	l-0.031,0.45C168.659,70.329,168.665,70.146,168.678,69.989z M168.678,71.237c0.012-0.107,0.024-0.303,0.03-0.471l0,0
	L168.678,71.237z M168.745,71.559L168.745,71.559l-0.031,0.444C168.729,71.895,168.732,71.715,168.745,71.559z M168.745,72.807
	c0.019-0.11,0.024-0.306,0.036-0.474l0,0L168.745,72.807z M168.815,73.122L168.815,73.122l-0.034,0.45
	C168.797,73.461,168.806,73.281,168.815,73.122z M168.813,74.373c0.015-0.11,0.027-0.303,0.036-0.471l0,0L168.813,74.373z
	 M168.886,74.691L168.886,74.691l-0.037,0.45C168.867,75.028,168.873,74.844,168.886,74.691z M168.886,75.933
	c0.015-0.107,0.021-0.303,0.033-0.471v0.003L168.886,75.933z M168.95,77.502c0.015-0.11,0.024-0.303,0.039-0.474v0.006
	L168.95,77.502z M169.021,77.821L169.021,77.821l-0.031,0.45C169.005,78.16,169.008,77.98,169.021,77.821z M169.057,78.601
	L169.057,78.601l-0.036,0.453C169.038,78.94,169.045,78.763,169.057,78.601z M169.057,79.855c0.013-0.113,0.024-0.306,0.034-0.474
	l0,0L169.057,79.855z M169.124,81.418c0.019-0.11,0.024-0.303,0.037-0.471v0.003L169.124,81.418z M169.194,81.736L169.194,81.736
	l-0.033,0.453C169.176,82.079,169.186,81.896,169.194,81.736z M169.191,82.984c0.019-0.11,0.024-0.306,0.037-0.474v0.003
	L169.191,82.984z M169.265,84.554c0.013-0.113,0.024-0.303,0.034-0.474l0,0L169.265,84.554z M169.332,84.869L169.332,84.869
	l-0.033,0.449C169.316,85.206,169.32,85.025,169.332,84.869z M169.332,86.117c0.016-0.107,0.019-0.304,0.037-0.472l0,0
	L169.332,86.117z M169.399,86.435L169.399,86.435l-0.03,0.45C169.384,86.771,169.394,86.595,169.399,86.435z M169.399,87.687
	c0.013-0.11,0.024-0.303,0.037-0.478v0.007L169.399,87.687z M169.467,89.249c0.019-0.104,0.024-0.303,0.043-0.471l0,0
	L169.467,89.249z M169.537,90.815c0.016-0.106,0.027-0.306,0.037-0.474v0.006L169.537,90.815z M169.607,91.134L169.607,91.134
	l-0.03,0.453C169.589,91.474,169.596,91.29,169.607,91.134z M169.607,92.382c0.016-0.107,0.024-0.303,0.037-0.477v0.009
	L169.607,92.382z M169.647,93.149c0.015-0.113,0.019-0.293,0.03-0.449v0.003L169.647,93.149z"/>
<path fill="#A385F3" d="M128.013,27.058c3.695,0,4.665,10.518,18.63,10.518c8.578,0,15.434-7.109,15.434-15.669
	c0-10.79-8.584-17.388-19.119-17.388c-22.785,0-45.795,15.671-45.795,47.765v36.979l-17.255,4.901v7.592
	c13.009,1.569,16.545,9.083,17.255,20.307v51.978l52.653-14.966v-7.589c-14.213-1.717-17.138-10.515-17.397-23.521V64.281
	c0-14.448,0.26-15.669-5.362-28.924c-0.496-1.221-1.506-3.634-1.506-5.115C125.55,28.997,126.309,27.058,128.013,27.058z
	 M16.79,49.151c14.199,1.716,17.121,10.514,17.397,23.521v63.694c0,14.436-0.277,15.656,5.362,28.911
	c0.511,1.221,1.495,3.646,1.495,5.115c0,1.227-0.747,3.185-2.464,3.185c-3.695,0-4.669-10.515-18.619-10.515
	c-8.578,0-15.445,7.106-15.445,15.666c0,10.789,8.587,17.388,19.121,17.388c22.798,0,45.795-15.669,45.795-47.765V26.599
	L16.79,41.561V49.151z"/>
</svg>
